<svg xmlns="http://www.w3.org/2000/svg" width="710" height="207" viewBox="0 0 710 207">
  <g fill="none" fill-rule="evenodd">
    <path fill="#000" d="M246 111.3c1.2 0 2.3-.2 3.1-.6.9-.4 1.6-1 2.1-1.6a7 7 0 0 0 1.2-2.4c.3-.9.4-1.8.4-2.8v-.5h3.6v.5c0 1.5-.3 2.9-.7 4.2a9 9 0 0 1-5.2 5.7c-1.3.5-2.8.8-4.5.8-3.2 0-5.8-1-7.6-3-1.8-2.1-2.7-5.1-2.7-9V96c0-3.8.9-6.7 2.7-8.8A9.5 9.5 0 0 1 246 84c1.7 0 3.2.3 4.5.8a9 9 0 0 1 5.2 5.7c.4 1.3.7 2.7.7 4.2v.5h-3.6v-.5c0-1-.2-1.9-.4-2.8a7 7 0 0 0-1.2-2.4A5.9 5.9 0 0 0 249 88a7 7 0 0 0-3-.6c-2.3 0-4 .8-5.2 2.5a11.3 11.3 0 0 0-1.7 6.5v6c0 3 .6 5.1 1.7 6.7 1.2 1.5 2.9 2.3 5.1 2.3zm37-7.5c0 1.8-.3 3.3-.9 4.6a9.7 9.7 0 0 1-5.6 5.4 11.2 11.2 0 0 1-8 0 9.7 9.7 0 0 1-5.6-5.4c-.6-1.3-.9-2.8-.9-4.6v-.5c0-1.7.3-3.2 1-4.5.5-1.4 1.3-2.5 2.2-3.4a11 11 0 0 1 14.6 0c1 1 1.7 2 2.3 3.4.6 1.3.9 2.8.9 4.5v.5zm-10.5 7.7a6.5 6.5 0 0 0 5-2c.7-.8 1.2-1.6 1.6-2.5.3-1 .5-2 .5-3.2v-.5c0-1-.2-2.1-.5-3a7.2 7.2 0 0 0-3.8-4 6.9 6.9 0 0 0-5.6 0 7 7 0 0 0-3.7 4c-.4.9-.6 2-.6 3v.5c0 1.2.2 2.3.6 3.2.3 1 .8 1.7 1.5 2.4.6.7 1.4 1.2 2.2 1.6.9.3 1.8.5 2.8.5zm20.7 2.5H290V93.2h3.2v3.5h.5c1.3-2.7 3.6-4.1 6.8-4.1 2.4 0 4.3.7 5.7 2.2 1.4 1.5 2.2 3.8 2.2 6.8V114H305v-11.8c0-2.1-.5-3.8-1.5-4.9a5 5 0 0 0-4-1.6c-2 0-3.5.7-4.7 2a8.2 8.2 0 0 0-1.7 5.5V114zm26.7 0h-3.3V93.2h3.3v3.5h.5c1.3-2.7 3.5-4.1 6.7-4.1 2.4 0 4.3.7 5.8 2.2 1.4 1.5 2.1 3.8 2.1 6.8V114h-3.3v-11.8c0-2.1-.5-3.8-1.4-4.9a5 5 0 0 0-4-1.6c-2 0-3.6.7-4.7 2a8.2 8.2 0 0 0-1.7 5.5V114zm25.8-9.4c0 2 .7 3.7 1.9 5a6.6 6.6 0 0 0 5 1.9c1 0 1.9-.1 2.6-.4a6 6 0 0 0 1.9-.9 5 5 0 0 0 1.2-1.3l.8-1.7 3.1.8c-.6 2-1.7 3.5-3.2 4.8a10.2 10.2 0 0 1-6.4 1.8c-1.5 0-2.9-.3-4.1-.8a9.2 9.2 0 0 1-3.3-2.2 12.1 12.1 0 0 1-2.9-7.8v-1c0-1.4.3-2.8.9-4a9.7 9.7 0 0 1 5.4-5.4c1.2-.6 2.6-.8 4-.8a9.7 9.7 0 0 1 7.5 3.3 9.3 9.3 0 0 1 2.3 6v2.7h-16.7zm7-9c-1 0-1.8.2-2.6.5a6.6 6.6 0 0 0-4.4 5.5h13.5A6 6 0 0 0 355 96c-.8-.3-1.6-.4-2.4-.4zm36.7 11a9.1 9.1 0 0 1-6.2 7.4 12 12 0 0 1-7.9-.1 10 10 0 0 1-5.7-5.4c-.6-1.4-.9-2.9-.9-4.6v-.5c0-1.7.3-3.2 1-4.5a10 10 0 0 1 5.7-5.6 11.4 11.4 0 0 1 7.8-.1 9.4 9.4 0 0 1 5 4.2c.6 1 1 2 1.1 3.2l-3.2.7c-.1-.7-.3-1.4-.7-2.1a6 6 0 0 0-3.3-3c-.7-.4-1.6-.5-2.7-.5a7.1 7.1 0 0 0-6.7 4.6c-.4 1-.6 2-.6 3.1v.5c0 1.2.2 2.3.6 3.2a6.7 6.7 0 0 0 3.9 3.9 7.9 7.9 0 0 0 5.6 0c.8-.3 1.4-.7 2-1.3a6 6 0 0 0 1.3-1.7l.6-2.1 3.3.7zm6.5-13.4h6.5v-8.6h3.3v8.6h8v3h-8v13.5c0 .9.4 1.3 1.1 1.3h6v3h-7.2a3.1 3.1 0 0 1-3.2-3.3V96.2H396v-3zm33.8-6.2c0-.9.3-1.6.9-2.1.5-.6 1.2-.9 2-.9.9 0 1.5.3 2.1.9.6.5.9 1.2.9 2 0 .9-.3 1.6-.9 2.1-.6.6-1.2.9-2 .9-.9 0-1.6-.3-2.1-.9-.6-.5-.9-1.2-.9-2zm-6 24h7.3V96.2h-6.5v-3h9.8V111h6.8v3h-17.4v-3zm45.8-7.2a10.1 10.1 0 0 1-3.1 8c-1 1-2 1.6-3.3 2a11.2 11.2 0 0 1-8 0 9.7 9.7 0 0 1-5.6-5.4c-.6-1.3-.9-2.8-.9-4.6v-.5c0-1.7.3-3.2.9-4.5a9.8 9.8 0 0 1 5.6-5.5 11 11 0 0 1 11.3 2 11.4 11.4 0 0 1 3.2 8v.5zm-10.4 7.7a6.5 6.5 0 0 0 5-2c.7-.8 1.2-1.6 1.5-2.5.4-1 .6-2 .6-3.2v-.5c0-1-.2-2.1-.6-3a7.2 7.2 0 0 0-3.7-4 6.9 6.9 0 0 0-5.6 0 7 7 0 0 0-3.8 4c-.3.9-.5 2-.5 3v.5c0 1.2.2 2.3.5 3.2.4 1 .9 1.7 1.5 2.4.7.7 1.4 1.2 2.3 1.6.8.3 1.8.5 2.8.5zm20.7 2.5h-3.3V93.2h3.3v3.5h.5c1.3-2.7 3.5-4.1 6.7-4.1 2.4 0 4.4.7 5.8 2.2 1.4 1.5 2.1 3.8 2.1 6.8V114h-3.2v-11.8c0-2.1-.5-3.8-1.5-4.9a5 5 0 0 0-4-1.6c-2 0-3.5.7-4.7 2a8.2 8.2 0 0 0-1.7 5.5V114zm22.3-18c0-3.8.9-6.7 2.7-8.8a9.5 9.5 0 0 1 7.6-3.2c3.2 0 5.8 1 7.6 3.2 1.8 2 2.7 5 2.7 8.8v6.6c0 3.9-.9 6.9-2.7 9-1.8 2-4.4 3-7.6 3-3.3 0-5.8-1-7.6-3-1.8-2.1-2.7-5.1-2.7-9V96zm10.3 15.3c2.3 0 4-.8 5-2.3 1.2-1.6 1.8-3.8 1.8-6.7v-6c0-2.7-.6-4.9-1.7-6.5-1.1-1.7-2.8-2.5-5.1-2.5s-4 .8-5.1 2.5a11.3 11.3 0 0 0-1.7 6.5v6c0 3 .6 5.1 1.7 6.7 1.1 1.5 2.8 2.3 5 2.3zm20 2.7H529V84.6h3.3v11.8h.5a7.2 7.2 0 0 1 3-2.8 9.4 9.4 0 0 1 10.9 1.8c.9.8 1.6 2 2 3.3.6 1.3.9 2.8.9 4.5v.8c0 1.7-.3 3.2-.8 4.5a8.8 8.8 0 0 1-5.2 5.4 10.1 10.1 0 0 1-5.7.5 8.3 8.3 0 0 1-3.8-2c-.5-.4-1-1-1.3-1.6h-.5v3.2zm7-2.5a6.6 6.6 0 0 0 6.4-4.4c.3-1 .5-2 .5-3.1v-.8c0-1.2-.2-2.2-.5-3a6.7 6.7 0 0 0-6.4-4.4 6.6 6.6 0 0 0-5 2c-.6.7-1.1 1.5-1.5 2.4-.4 1-.5 2-.5 3.1v.5c0 1.2.1 2.2.5 3.2.4.9.9 1.7 1.5 2.4a6.6 6.6 0 0 0 5 2zm21.4-13c0 1 .5 1.8 1.3 2.4.9.5 2.4.8 4.7 1 2.4.2 4.3.8 5.6 1.7a5 5 0 0 1 1.9 4.3v.2a5.9 5.9 0 0 1-2.3 4.8c-.7.5-1.6 1-2.6 1.2-1 .3-2.2.5-3.4.5-1.6 0-3-.2-4.1-.7-1.2-.4-2.2-1-3-1.7a7.2 7.2 0 0 1-1.7-2.4c-.4-1-.6-1.8-.7-2.8l3.2-.7c0 1.6.7 2.8 1.8 3.8 1 1 2.5 1.5 4.4 1.5 1.5 0 2.7-.3 3.7-1 1-.5 1.4-1.4 1.4-2.5 0-1.2-.5-2-1.4-2.5-1-.5-2.4-.8-4.5-1-2.4-.1-4.2-.7-5.5-1.6-1.3-1-2-2.4-2-4.2v-.3a5.2 5.2 0 0 1 2.4-4.4c.7-.5 1.5-.9 2.4-1.1a10.5 10.5 0 0 1 6.4.2c1 .3 2 .8 2.6 1.4.7.6 1.3 1.3 1.6 2.1.4.8.7 1.6.8 2.3l-3.1.8a4.5 4.5 0 0 0-1.7-3.1c-.9-.8-2.1-1.2-3.6-1.2-.6 0-1.2 0-1.7.2a5 5 0 0 0-1.5.6c-.4.2-.7.5-1 1-.2.3-.4.7-.4 1.2zm24.7 6c.1 2.2.8 3.8 2 5a6.6 6.6 0 0 0 5 2c1 0 1.9-.1 2.6-.4a6 6 0 0 0 1.9-.9 5 5 0 0 0 1.2-1.3l.8-1.7 3.1.8c-.6 2-1.7 3.5-3.3 4.8a10.2 10.2 0 0 1-6.4 1.8c-1.4 0-2.8-.3-4-.8a9.2 9.2 0 0 1-3.3-2.2 12.1 12.1 0 0 1-2.9-7.8v-1c0-1.4.3-2.8.9-4a9.7 9.7 0 0 1 5.4-5.4c1.2-.6 2.6-.8 4-.8a9.7 9.7 0 0 1 7.5 3.3 9.3 9.3 0 0 1 2.3 6v2.7h-16.8zm7-8.8a6.6 6.6 0 0 0-6.9 5.9h13.5a6 6 0 0 0-4.2-5.5c-.8-.3-1.6-.4-2.4-.4zm16.1-2.5h7.6v2.7h.5c.5-1.1 1.3-2 2.3-2.5 1-.5 2-.8 3.3-.8 2.1 0 3.8.7 5.1 2 1.3 1.4 2 3.4 2 6l-3.4.5c0-1.9-.4-3.3-1.4-4.1-.9-.9-2-1.3-3.4-1.3-.8 0-1.6.2-2.2.5-.6.3-1.2.8-1.6 1.4a6 6 0 0 0-1 2l-.2 2.6v8.8h5.3v3H608v-3h4.8V96.2h-4.3v-3zM649 114h-6.5L635 93.2h3.9l6.4 19.3h.5l6.4-19.3h3.8L649 114zm16.6-9.4c.1 2 .7 3.7 2 5a6.6 6.6 0 0 0 5 1.9c1 0 1.8-.1 2.5-.4a6 6 0 0 0 2-.9 5 5 0 0 0 1.2-1.3l.8-1.7 3 .8c-.5 2-1.6 3.5-3.2 4.8a10.2 10.2 0 0 1-6.4 1.8c-1.5 0-2.8-.3-4.1-.8a9.2 9.2 0 0 1-3.2-2.2c-.9-1-1.6-2-2.1-3.4-.5-1.3-.8-2.8-.8-4.4v-1c0-1.4.3-2.8.8-4a9.7 9.7 0 0 1 5.4-5.4c1.3-.6 2.6-.8 4-.8a9.7 9.7 0 0 1 7.6 3.3c.8.9 1.4 1.9 1.7 3 .4 1 .6 2 .6 3v2.7h-16.8zm7-9c-1 0-1.8.2-2.6.5a6.6 6.6 0 0 0-4.3 5.5H679A6 6 0 0 0 675 96c-.8-.3-1.6-.4-2.4-.4zm16.1-2.4h7.6v2.7h.5c.5-1.1 1.2-2 2.2-2.5 1-.5 2.1-.8 3.4-.8 2 0 3.8.7 5 2 1.4 1.4 2 3.4 2.1 6l-3.4.5c0-1.9-.5-3.3-1.4-4.1-1-.9-2-1.3-3.4-1.3-.9 0-1.6.2-2.3.5-.6.3-1.1.8-1.5 1.4a6 6 0 0 0-1 2l-.2 2.6v8.8h5.2v3h-13.3v-3h4.8V96.2h-4.3v-3z"/>
    <circle cx="103.5" cy="103.5" r="103.5" fill="#3D3D3D"/>
    <g fill="#FFF" fill-rule="nonzero">
      <path d="M125.8 86.6V71.4c0-.3-19.8-.1-19.9-.3v-14h5.1-14.6 5.9v14H81.5v15.5h3.8V74.8h17v11.8h3.6V74.8h16.2v11.8h3.7z"/>
      <path d="M111.6 57.2H97V43h14.6v14.2zM99.8 45.5v9.2h9.1v-9.2h-9.1zM91 100.2H76.4V86H91v14.2zM79 88.5v9.3h9.2v-9.3h-9.1zM111.6 100.2H97V86h14.6v14.2zM99.8 88.5v9.3h9.1v-9.3h-9.1zM131.1 100.2h-14.6V86h14.6v14.2zm-11.8-11.7v9.3h9v-9.3h-9z"/>
      <g>
        <path d="M85.5 99.7h5H76h5.8v22H61.1v15.2H65v-11.6h17v11.6h3.6V99.7z"/>
        <path d="M70.5 150.6H56v-14h14.5v14zM58.7 139v9.1h9.1v-9h-9zM91.2 150.6H76.6v-14h14.6v14zM79.3 139v9.1h9.1v-9h-9z"/>
      </g>
      <g>
        <path d="M145.5 136.9v-15c0-.3-19.7-.1-19.7-.3v-22h5-14.5 5.8V137h3.7v-11.6h16v11.6h3.7z"/>
        <path d="M131.4 150.6H117v-14h14.5v14zM119.6 139v9.1h9v-9h-9zM150.7 150.6h-14.5v-14h14.5v14zM139 139v9.1h9v-9h-9z"/>
      </g>
    </g>
  </g>
</svg>
